<svg xmlns="http://www.w3.org/2000/svg" data-name="Layer 1" viewBox="0 0 512 512"><path d="M337.921 103.933L265.634 13.948A7.959 7.959 0 0 0 259.4 11H125.733a7.955 7.955 0 0 0-6.137 2.826L47.308 100.274a7.986 7.986 0 0 0 .485 10.781l32.429 32.376a8 8 0 0 0 11.461-.164l15.378-16.236-.885 130.242A7.627 7.627 0 0 0 108.5 262.8a7.844 7.844 0 0 0 5.676 2.2H270.954a7.729 7.729 0 0 0 8-7.809l-.872-128.225 11.629 13.913a8 8 0 0 0 11.148 1.109L336.7 115.17A7.993 7.993 0 0 0 337.921 103.933zM222.141 27c-3.38 14-15.358 24.21-29.576 24.21S166.369 41 162.988 27zM122.993 137H262.137l.264 39H122.728zm-.763 112l.389-57H262.51l.389 57zM296.944 126.614l-20.879-24.943a8 8 0 0 0-8.892-2.375 7.876 7.876 0 0 0-5.242 7.469l.1 14.235H123.1l.1-14.235a7.987 7.987 0 0 0-13.808-5.484L85.715 126.288 64.28 104.933 129.473 27h17.214c3.69 23 22.852 40.21 45.878 40.21S234.752 50 238.443 27H255.56l64.881 80.761zM458.554 99h-98.34A8.373 8.373 0 0 0 352 107.218v29.389l-32.964 77.164a7.979 7.979 0 0 0-.5 4.384l43.111 276.121A7.989 7.989 0 0 0 369.58 501h88.974c4.418 0 8.446-3.5 8.446-7.913V107.218A8.581 8.581 0 0 0 458.554 99zM451 115v14H368V115zM376.429 485L334.755 217.822 365.943 145H451V485z"/><path d="M429.365,157h-51.2A8.384,8.384,0,0,0,370,165.28v45.582a8.076,8.076,0,0,0,3.682,6.681L399.323,234.4a8.05,8.05,0,0,0,8.831,0l25.423-16.859A7.839,7.839,0,0,0,437,210.862V165.28C437,160.861,433.784,157,429.365,157ZM421,206.551l-17.5,11.591L386,206.551V173h35Z"/></svg>