<svg xmlns="http://www.w3.org/2000/svg" width="32" height="32" viewBox="0 0 32 32"><g transform="translate(0 -1020.362)"><path style="line-height:normal;text-indent:0;text-align:start;text-decoration-line:none;text-decoration-style:solid;text-decoration-color:#000;text-transform:none;block-progression:tb;white-space:normal;isolation:auto;mix-blend-mode:normal;solid-color:#000;solid-opacity:1" d="M 13 6 C 11.900643 6 11 6.9007 11 8 L 11 10 L 7 10 C 4.7926403 10 3 11.7927 3 14 L 3 16.5 A 0.50005 0.50005 0 0 0 3.5 17 L 4 17 L 4 22 C 4 23.6534 5.3466409 25 7 25 L 25 25 C 26.653359 25 28 23.6534 28 22 L 28 17 L 28.5 17 A 0.50005 0.50005 0 0 0 29 16.5 L 29 14 C 29 11.7927 27.207359 10 25 10 L 21 10 L 21 8 C 21 6.9007 20.099357 6 19 6 L 13 6 z M 13 7 L 19 7 C 19.562661 7 20 7.4374 20 8 L 20 10 L 19 10 L 19 8.5 A 0.50005 0.50005 0 0 0 19 8.4960938 A 0.50005 0.50005 0 0 0 18.998047 8.4492188 A 0.50005 0.50005 0 0 0 18.998047 8.4472656 A 0.50005 0.50005 0 0 0 18.990234 8.4003906 A 0.50005 0.50005 0 0 0 18.990234 8.3984375 A 0.50005 0.50005 0 0 0 18.978516 8.3515625 A 0.50005 0.50005 0 0 0 18.978516 8.3496094 A 0.50005 0.50005 0 0 0 18.960938 8.3046875 A 0.50005 0.50005 0 0 0 18.960938 8.3027344 A 0.50005 0.50005 0 0 0 18.939453 8.2597656 A 0.50005 0.50005 0 0 0 18.939453 8.2578125 A 0.50005 0.50005 0 0 0 18.912109 8.2167969 A 0.50005 0.50005 0 0 0 18.912109 8.2148438 A 0.50005 0.50005 0 0 0 18.847656 8.140625 A 0.50005 0.50005 0 0 0 18.5 7.9960938 L 13.5 7.9960938 L 13.5 8 A 0.50005 0.50005 0 0 0 13.400391 8.0097656 A 0.50005 0.50005 0 0 0 13 8.4960938 A 0.50005 0.50005 0 0 0 13 8.5 L 13 10 L 12 10 L 12 8 C 12 7.85935 12.02638 7.7255906 12.076172 7.6054688 C 12.225548 7.2451031 12.578004 7 13 7 z M 14 9 L 18 9 L 18 10 L 14 10 L 14 9 z M 7 11 L 25 11 C 26.670659 11 28 12.3294 28 14 L 28 16 L 23 16 L 23 15 C 23 14.4547 22.545361 14 22 14 L 21 14 C 20.454639 14 20 14.4547 20 15 L 20 16 L 12 16 L 12 15 C 12 14.4547 11.545361 14 11 14 L 10 14 C 9.454639 14 9 14.4547 9 15 L 9 16 L 4 16 L 4 14 C 4 12.3294 5.3293405 11 7 11 z M 10 15 L 11 15 L 11 16.417969 A 0.50005 0.50005 0 0 0 11 16.582031 L 11 18 L 10 18 L 10 16.578125 A 0.50005 0.50005 0 0 0 10 16.417969 L 10 15 z M 21 15 L 22 15 L 22 16.417969 A 0.50005 0.50005 0 0 0 22 16.582031 L 22 18 L 21 18 L 21 16.578125 A 0.50005 0.50005 0 0 0 21 16.417969 L 21 15 z M 5 17 L 9 17 L 9 18 C 9 18.5454 9.454639 19 10 19 L 11 19 C 11.545361 19 12 18.5454 12 18 L 12 17 L 20 17 L 20 18 C 20 18.5454 20.454639 19 21 19 L 22 19 C 22.545361 19 23 18.5454 23 18 L 23 17 L 27 17 L 27 22 C 27 23.1167 26.116659 24 25 24 L 7 24 C 5.8833399 24 5 23.1167 5 22 L 5 17 z " color="#000" enable-background="accumulate" font-family="sans-serif" font-weight="400" overflow="visible" transform="translate(0 1020.362)"/></g></svg>