<svg xmlns="http://www.w3.org/2000/svg" width="16" height="16" viewBox="0 0 16 16"><path d="M 10.675781 1 C 10.290824 1 9.9059826 1.1447969 9.6152344 1.4355469 C 9.0337451 2.0170469 9.0337451 2.9751406 9.6152344 3.5566406 L 9.96875 3.9101562 L 3.6054688 10.273438 L 3.2519531 9.921875 C 2.6704638 9.340375 1.7104026 9.340375 1.1289062 9.921875 C 0.54741704 10.503275 0.54741704 11.461469 1.1289062 12.042969 L 3.9589844 14.871094 C 4.5404736 15.452594 5.4985888 15.452594 6.0800781 14.871094 C 6.6615744 14.289594 6.6615674 13.3315 6.0800781 12.75 L 5.7265625 12.396484 L 12.089844 6.03125 L 12.443359 6.3847656 C 13.024848 6.9662656 13.982964 6.9662656 14.564453 6.3847656 C 15.145949 5.8032656 15.145942 4.8451719 14.564453 4.2636719 L 11.736328 1.4355469 C 11.445584 1.1447969 11.060738 1 10.675781 1 z M 10.675781 1.9921875 C 10.802062 1.9921875 10.928304 2.0415781 11.029297 2.1425781 L 13.857422 4.9707031 C 14.059407 5.1727031 14.059407 5.4757344 13.857422 5.6777344 C 13.655444 5.8797344 13.352376 5.8797344 13.150391 5.6777344 L 12.796875 5.3242188 L 10.675781 3.203125 L 10.322266 2.8496094 C 10.120281 2.6476094 10.120288 2.3445781 10.322266 2.1425781 C 10.423258 2.0415781 10.549501 1.9921875 10.675781 1.9921875 z M 10.675781 4.6171875 L 11.382812 5.3242188 L 5.0195312 11.689453 L 4.3125 10.982422 L 10.675781 4.6171875 z M 2.1894531 10.476562 C 2.3157336 10.476562 2.4419762 10.527906 2.5429688 10.628906 L 2.8964844 10.982422 L 2.8828125 10.996094 L 3.2363281 11.349609 L 5.0058594 13.117188 L 5.0195312 13.103516 L 5.3730469 13.457031 C 5.575032 13.659031 5.575032 13.962063 5.3730469 14.164062 C 5.1710689 14.366062 4.8680007 14.366062 4.6660156 14.164062 L 1.8359375 11.335938 C 1.6339525 11.133938 1.6339595 10.830806 1.8359375 10.628906 C 1.93693 10.527906 2.0631727 10.476562 2.1894531 10.476562 z " color="#000" enable-background="accumulate" font-family="sans-serif" font-weight="400" overflow="visible" style="line-height:normal;text-indent:0;text-align:start;text-decoration-line:none;text-decoration-style:solid;text-decoration-color:#000;text-transform:none;block-progression:tb;white-space:normal;isolation:auto;mix-blend-mode:normal;solid-color:#000;solid-opacity:1"/></svg>