<?xml version="1.0" standalone="no"?>
<!DOCTYPE svg PUBLIC "-//W3C//DTD SVG 20010904//EN"
 "http://www.w3.org/TR/2001/REC-SVG-20010904/DTD/svg10.dtd">
<svg version="1.0" xmlns="http://www.w3.org/2000/svg"
 width="356.000000pt" height="378.000000pt" viewBox="0 0 356.000000 378.000000"
 preserveAspectRatio="xMidYMid meet">

<g transform="translate(0.000000,378.000000) scale(0.100000,-0.100000)"
fill="#000000" stroke="none">
<path d="M1049 3343 c-51 -32 -64 -68 -64 -183 0 -96 2 -109 26 -150 35 -59
66 -87 80 -73 6 6 12 69 13 154 2 89 7 153 15 167 17 32 54 28 85 -9 31 -37
33 -31 6 20 -40 80 -105 109 -161 74z"/>
<path d="M2145 3293 c-114 -16 -315 -90 -429 -159 -133 -81 -270 -210 -420
-397 -43 -54 -81 -96 -83 -93 -13 13 -26 105 -32 226 l-6 135 -14 -70 c-7 -41
-13 -138 -12 -232 l0 -162 -134 -178 c-135 -179 -183 -238 -189 -232 -2 2 -23
69 -47 149 l-44 145 0 197 c0 108 -1 196 -2 195 -1 -1 -11 -40 -23 -87 -61
-236 -37 -480 61 -639 66 -108 114 -77 339 222 36 47 68 86 71 87 4 0 10 -12
14 -27 29 -119 143 -345 232 -462 18 -24 33 -47 33 -51 0 -4 -61 -5 -134 -2
-74 2 -206 -1 -293 -8 -87 -7 -184 -12 -215 -11 -50 1 -59 -2 -77 -25 -12 -15
-21 -31 -21 -36 0 -5 20 -39 44 -76 23 -37 55 -86 70 -109 55 -90 263 -287
491 -468 55 -43 102 -82 105 -85 3 -4 46 -28 95 -55 105 -56 102 -50 -13 28
-247 168 -571 484 -666 650 -89 155 65 3 269 -266 49 -65 91 -114 93 -109 2 6
-21 47 -51 93 -29 46 -82 136 -118 198 -35 63 -81 133 -102 155 -20 21 -36 41
-34 43 2 1 64 10 138 19 198 24 429 6 589 -44 109 -35 232 -90 262 -119 39
-37 63 -104 49 -132 -7 -12 -16 -21 -21 -21 -4 0 -53 47 -107 104 -97 102 -99
103 -153 109 l-54 7 109 -111 c61 -61 101 -109 90 -106 -11 3 -38 9 -60 12
-55 9 -168 45 -311 99 -114 43 -251 78 -354 90 -26 3 -6 -5 47 -18 110 -29
183 -61 323 -140 200 -113 388 -181 475 -173 48 5 53 3 135 -58 47 -34 107
-77 133 -94 27 -18 47 -34 45 -36 -2 -1 -44 3 -93 10 -153 21 -307 71 -431
140 -35 19 -64 33 -64 30 0 -13 167 -114 264 -161 133 -64 237 -92 366 -101
105 -7 114 -11 243 -114 l62 -50 -68 63 c-37 35 -67 66 -67 69 0 8 101 -13
165 -35 94 -32 154 -78 218 -166 10 -14 8 -7 -4 15 -54 96 -121 152 -241 202
-141 60 -173 71 -222 78 -42 6 -67 20 -165 96 -182 140 -178 136 -163 156 69
96 51 208 -46 293 -52 46 -145 93 -222 113 -63 16 -72 27 -104 126 -52 160
-75 325 -77 541 0 156 -14 150 -28 -14 -17 -200 17 -423 86 -560 l34 -69 -42
7 c-23 4 -46 9 -50 12 -5 3 -43 56 -84 118 -89 134 -188 328 -230 448 l-29 86
104 139 c122 162 340 385 451 460 123 84 280 153 407 178 17 4 32 11 32 16 0
9 -37 10 -95 2z"/>
<path d="M2218 3224 c-7 -7 2 -40 30 -110 55 -137 99 -443 88 -613 -3 -52 -4
-92 -1 -90 2 2 11 58 19 124 29 216 18 382 -35 535 -39 113 -80 175 -101 154z"/>
<path d="M1181 3024 c0 -11 3 -14 6 -6 3 7 2 16 -1 19 -3 4 -6 -2 -5 -13z"/>
<path d="M2630 875 c19 -19 36 -35 39 -35 3 0 -10 16 -29 35 -19 19 -36 35
-39 35 -3 0 10 -16 29 -35z"/>
<path d="M2680 826 c0 -2 8 -10 18 -17 15 -13 16 -12 3 4 -13 16 -21 21 -21
13z"/>
<path d="M427 438 c-10 -62 -17 -116 -17 -120 0 -5 11 -8 24 -8 19 0 25 7 30
35 6 33 9 35 45 35 55 0 82 25 88 83 8 69 -11 87 -91 87 l-61 0 -18 -112z
m121 39 c5 -25 -16 -47 -44 -47 -25 0 -31 20 -18 55 9 22 58 16 62 -8z"/>
<path d="M676 528 c-3 -13 -10 -54 -16 -93 -6 -38 -14 -83 -17 -98 -5 -26 -3
-28 24 -25 24 3 29 8 33 43 7 60 36 60 51 1 9 -39 15 -46 35 -46 27 0 29 12
13 58 -9 27 -8 35 10 58 25 32 27 86 5 108 -10 11 -34 16 -75 16 -53 0 -59 -2
-63 -22z m99 -38 c12 -20 -6 -50 -31 -50 -18 0 -24 5 -24 23 0 13 3 27 7 30
10 10 41 8 48 -3z"/>
<path d="M920 543 c0 -15 -31 -198 -36 -215 -4 -14 1 -18 23 -18 l29 0 17 108
c22 135 22 132 -8 132 -14 0 -25 -3 -25 -7z"/>
<path d="M1046 448 c-16 -57 -31 -111 -34 -120 -3 -14 2 -18 20 -18 22 0 27 8
43 60 10 32 22 57 26 54 5 -3 9 -30 9 -60 0 -52 1 -54 28 -54 24 0 30 7 51 60
13 33 27 60 31 60 4 0 5 -27 3 -60 -5 -58 -4 -60 20 -60 20 0 25 6 31 38 3 20
6 74 6 120 0 80 -1 82 -24 82 -20 0 -29 -13 -61 -85 -21 -47 -41 -83 -44 -79
-3 3 -10 40 -16 82 -9 72 -12 77 -35 80 -24 3 -27 -2 -54 -100z"/>
<path d="M1394 453 c-69 -147 -68 -143 -39 -143 14 0 29 8 35 20 8 15 21 20
51 20 32 0 42 -4 46 -20 4 -13 14 -20 30 -20 21 0 23 3 19 33 -8 43 -26 186
-26 198 0 5 -16 9 -35 9 -35 0 -36 -1 -81 -97z m76 -8 c0 -38 -3 -45 -20 -45
-23 0 -24 1 -8 51 15 52 28 49 28 -6z"/>
<path d="M1657 490 l26 -60 -47 -60 -47 -60 30 0 c24 0 36 8 53 35 13 19 27
35 31 35 4 0 15 -16 23 -35 11 -27 20 -35 39 -35 31 0 31 9 0 70 l-25 49 45
55 c25 30 45 57 45 60 0 3 -13 6 -30 6 -16 0 -30 -3 -30 -7 0 -5 -11 -21 -24
-38 l-24 -30 -18 38 c-14 29 -23 37 -45 37 l-28 0 26 -60z"/>
<path d="M2028 540 c-10 -6 -22 -28 -28 -50 -15 -55 -1 -78 51 -86 29 -5 39
-11 37 -23 -2 -12 -17 -17 -55 -19 -40 -2 -52 -7 -56 -22 -5 -21 16 -30 76
-30 50 0 87 35 87 83 0 41 -12 53 -63 62 -28 6 -37 11 -33 22 3 8 6 17 6 19 0
2 23 4 51 4 47 0 50 2 47 23 -3 19 -10 22 -53 24 -27 2 -58 -2 -67 -7z"/>
<path d="M2220 483 c-6 -38 -14 -92 -17 -120 -6 -52 -5 -53 20 -53 22 0 26 5
29 33 3 29 7 32 38 35 50 4 78 21 90 55 27 80 -1 117 -89 117 l-59 0 -12 -67z
m105 -18 c0 -25 -4 -30 -27 -33 -25 -3 -28 0 -28 26 0 35 8 44 35 40 15 -2 20
-10 20 -33z"/>
<path d="M2493 538 c-31 -15 -53 -68 -55 -134 -1 -49 2 -59 23 -75 52 -40 139
-15 159 47 20 59 18 129 -4 153 -21 23 -84 28 -123 9z m85 -86 c4 -57 -19 -94
-56 -90 -25 3 -27 6 -27 54 1 61 18 86 54 82 23 -3 26 -8 29 -46z"/>
<path d="M2725 538 c-2 -7 -9 -47 -15 -88 -6 -41 -13 -90 -16 -107 -6 -30 -4
-33 19 -33 22 0 27 6 34 43 5 25 14 42 22 42 8 0 21 -19 29 -42 11 -35 18 -43
39 -43 18 0 23 4 19 18 -18 60 -17 72 3 98 26 33 27 85 3 107 -23 21 -130 24
-137 5z m100 -62 c0 -23 -26 -41 -47 -33 -11 4 -14 14 -10 32 4 21 9 26 31 23
18 -2 26 -9 26 -22z"/>
<path d="M2950 525 c0 -20 5 -25 23 -25 13 0 26 -2 29 -5 3 -3 -1 -38 -8 -78
-18 -102 -18 -107 10 -107 27 0 31 8 41 85 12 100 14 105 45 105 25 0 40 15
40 41 0 5 -40 9 -90 9 -89 0 -90 0 -90 -25z"/>
</g>
</svg>
